<?xml version="1.0" standalone="no"?>
<!DOCTYPE svg PUBLIC "-//W3C//DTD SVG 20010904//EN"
 "http://www.w3.org/TR/2001/REC-SVG-20010904/DTD/svg10.dtd">
<svg version="1.0" xmlns="http://www.w3.org/2000/svg"
 width="260.000000pt" height="260.000000pt" viewBox="0 0 260.000000 260.000000"
 preserveAspectRatio="xMidYMid meet">
<metadata>
Created by potrace 1.14, written by Peter Selinger 2001-2017
</metadata>
<g transform="translate(0.000000,260.000000) scale(0.100000,-0.100000)"
fill="#000000" stroke="none">
<path d="M275 2576 c-104 -33 -196 -112 -238 -204 l-22 -47 0 -1035 0 -1035
28 -56 c33 -69 109 -142 181 -175 l53 -24 1039 2 1039 3 48 23 c68 34 134 103
168 176 l29 63 -2 1034 -3 1034 -28 54 c-37 69 -103 133 -175 168 l-57 28
-1010 2 c-798 1 -1018 -1 -1050 -11z m1254 -505 c52 -18 122 -48 155 -68 69
-42 181 -145 221 -203 l29 -41 -474 -474 c-261 -261 -472 -476 -470 -478 27
-25 119 -72 173 -89 55 -16 87 -19 170 -16 90 3 110 7 171 36 93 44 158 95
213 167 85 112 133 256 133 402 l0 68 89 89 c52 52 91 84 95 77 15 -24 36
-169 36 -251 0 -342 -197 -644 -500 -767 -347 -140 -748 18 -930 367 -238 459
-23 1030 448 1184 84 28 140 35 247 32 80 -3 119 -10 194 -35z"/>
<path d="M1225 1879 c-197 -29 -385 -212 -441 -430 -33 -127 -16 -317 38 -422
l20 -40 389 389 c214 214 389 392 389 396 0 3 -22 20 -50 37 -100 61 -227 87
-345 70z"/>
</g>
</svg>
